<mxfile host="app.diagrams.net" modified="2020-10-24T20:36:41.126Z" agent="5.0 (Macintosh)" etag="F5zTjEAm7HkW078GEfui" version="13.8.1" type="github">
  <diagram name="Page-1" id="929967ad-93f9-6ef4-fab6-5d389245f69c">
    <mxGraphModel dx="786" dy="523" grid="1" gridSize="10" guides="1" tooltips="1" connect="1" arrows="1" fold="1" page="1" pageScale="1.5" pageWidth="1169" pageHeight="826" background="none" math="0" shadow="0">
      <root>
        <mxCell id="0" style=";html=1;" />
        <mxCell id="1" style=";html=1;" parent="0" />
        <mxCell id="W78j_bCvdu6Kjm0QDKxR-1" value="Customer" style="shape=umlActor;html=1;verticalLabelPosition=bottom;verticalAlign=top;align=center;" vertex="1" parent="1">
          <mxGeometry x="170" y="190" width="30" height="60" as="geometry" />
        </mxCell>
        <mxCell id="W78j_bCvdu6Kjm0QDKxR-2" value="" style="whiteSpace=wrap;html=1;verticalAlign=top;" vertex="1" parent="1">
          <mxGeometry x="125" y="330" width="120" height="60" as="geometry" />
        </mxCell>
      </root>
    </mxGraphModel>
  </diagram>
</mxfile>
